<svg xmlns="http://www.w3.org/2000/svg" width="19.5" height="19.5" viewBox="0 0 19.5 19.5"><path d="M21.19,15.23a9.6,9.6,0,0,0,0-6.46.36.36,0,0,0,0-.09,9.73,9.73,0,0,0-18.3,0,.36.36,0,0,0,0,.09,9.6,9.6,0,0,0,0,6.46.36.36,0,0,0,0,.09,9.73,9.73,0,0,0,18.3,0A.36.36,0,0,0,21.19,15.23ZM12,20c-1,0-2.06-1.68-2.62-4.26h5.24C14.06,18.33,13,20,12,20ZM9.13,14.25a19.54,19.54,0,0,1,0-4.5h5.74A20,20,0,0,1,15,12a20,20,0,0,1-.13,2.25ZM3.75,12a8.38,8.38,0,0,1,.32-2.25H7.62a21.15,21.15,0,0,0,0,4.5H4.07A8.38,8.38,0,0,1,3.75,12ZM12,4c1,0,2.06,1.68,2.62,4.26H9.38C9.94,5.67,11,4,12,4Zm4.38,5.76h3.55a8.07,8.07,0,0,1,0,4.5H16.38A20.38,20.38,0,0,0,16.5,12,20.38,20.38,0,0,0,16.38,9.75Zm3-1.5H16.16a10.92,10.92,0,0,0-1.54-4.07A8.36,8.36,0,0,1,19.34,8.25Zm-10-4.07A10.92,10.92,0,0,0,7.84,8.25H4.66A8.36,8.36,0,0,1,9.38,4.18ZM4.66,15.75H7.84a10.92,10.92,0,0,0,1.54,4.07A8.36,8.36,0,0,1,4.66,15.75Zm10,4.07a10.92,10.92,0,0,0,1.54-4.07h3.18A8.36,8.36,0,0,1,14.62,19.82Z" transform="translate(-2.25 -2.25)"/></svg>