<svg xmlns="http://www.w3.org/2000/svg" width="58.71" height="64" viewBox="0 0 58.71 64"><path d="M10.18,24.65a46.32,46.32,0,0,0,9.89,8.09,1.87,1.87,0,0,0,2.06,0,34,34,0,0,0,4.78-3.35,1,1,0,0,0,.36-.69A1,1,0,0,0,27,28a1.06,1.06,0,0,0-.69-.36,1,1,0,0,0-.75.24A31.78,31.78,0,0,1,21.11,31a43.94,43.94,0,0,1-9.42-7.72,30.07,30.07,0,0,1-4.56-6.19A13.54,13.54,0,0,1,5.2,10.27a8.17,8.17,0,0,1,3.69-7A7.1,7.1,0,0,1,14,2.12,7.56,7.56,0,0,1,19,5c.3.37.58.78.88,1.23l.46.66a1,1,0,0,0,.37.33,1,1,0,0,0,.49.1,1,1,0,0,0,.48-.13A1,1,0,0,0,22,6.89l.23-.36c.15-.24.3-.48.46-.72a8.26,8.26,0,0,1,4-3.32A6.83,6.83,0,0,1,30,2.11a7.63,7.63,0,0,1,5.94,4,8.64,8.64,0,0,1,1,5.81,17.26,17.26,0,0,1-3,7l-.1.18-.11.14a1.22,1.22,0,0,0-.16.37.9.9,0,0,0,0,.4.89.89,0,0,0,.14.37,1.06,1.06,0,0,0,.27.29,1,1,0,0,0,.36.16.9.9,0,0,0,.4,0,1,1,0,0,0,.37-.14.94.94,0,0,0,.29-.27,1.61,1.61,0,0,0,.17-.28h0l.08-.12a19,19,0,0,0,3.26-7.87A10.73,10.73,0,0,0,37.7,5.08a9.58,9.58,0,0,0-7.46-5A8.75,8.75,0,0,0,26,.57a10.47,10.47,0,0,0-4.9,3.92c-.18-.25-.36-.5-.56-.74A9.62,9.62,0,0,0,14.25.1,9.11,9.11,0,0,0,7.74,1.61a10.2,10.2,0,0,0-4.58,8.62A15.29,15.29,0,0,0,5.33,18,32.48,32.48,0,0,0,10.18,24.65Z" transform="translate(-3 0)" fill="#d8001a"/><path d="M43.22,23.35h3.66a1,1,0,0,0,.72-.3,1,1,0,0,0,.3-.72v-2.9h2.9a1,1,0,0,0,1-1V14.75a1,1,0,0,0-1-1H47.9V10.82a1,1,0,0,0-1-1H43.22a1,1,0,0,0-1,1v2.91H39.29a1,1,0,0,0-1,1v3.66a1,1,0,0,0,1,1H42.2v2.9a1,1,0,0,0,.3.72A1,1,0,0,0,43.22,23.35Zm-2.91-6V15.77h2.91a1,1,0,0,0,1-1V11.84h1.62v2.91a1,1,0,0,0,1,1h2.9v1.62h-2.9a1,1,0,0,0-.72.29,1.06,1.06,0,0,0-.3.73v2.9H44.24v-2.9a1.06,1.06,0,0,0-.3-.73,1,1,0,0,0-.72-.29Z" transform="translate(-3 0)" fill="#d8001a"/><path d="M61.64,45.13c-.43-1.89-2.73-2.3-3.57-2.3a13.71,13.71,0,0,0-6,1.45L41.83,49.79a2.73,2.73,0,0,1-1.86.26l-8.92-1.93a1.33,1.33,0,0,1-.55-.22,1.37,1.37,0,0,1-.42-.41.74.74,0,0,1-.1-.35.76.76,0,0,1,.06-.36c.15-.41,1.14-.26,1.15-.26l7,1.37a4.65,4.65,0,0,0,3.35-.22,2.92,2.92,0,0,0,.9-.81,2.84,2.84,0,0,0,.49-1.11,3.66,3.66,0,0,0-.37-3,3.12,3.12,0,0,0-2-1.28l-11-2.23a11.17,11.17,0,0,0-5.68.31L12.21,43.31a11.2,11.2,0,0,0-4.56,2.84L3.29,50.64a1,1,0,0,0-.29.73,1,1,0,0,0,.31.72,1,1,0,0,0,.73.29,1,1,0,0,0,.71-.31l4.37-4.49a9,9,0,0,1,3.72-2.31l11.67-3.78a9.06,9.06,0,0,1,4.65-.26l11.05,2.24a1.11,1.11,0,0,1,.65.43,1.92,1.92,0,0,1,.07,1.38.79.79,0,0,1-.13.35.84.84,0,0,1-.27.26,2.88,2.88,0,0,1-1.81,0l-.11,0-7-1.39c-.94-.18-2.87-.09-3.47,1.59A2.76,2.76,0,0,0,28,47.31a2.84,2.84,0,0,0,.35,1.17,3.38,3.38,0,0,0,2.32,1.63L39.53,52a4.76,4.76,0,0,0,3.27-.46L53,46.07a11.76,11.76,0,0,1,5-1.21c.51,0,1.51.25,1.62.72,0,.12.11.49-.56.92L44.57,56.07a4.15,4.15,0,0,1-2.39.67l-27-.32a1.1,1.1,0,0,0-.75.32L9.21,62.28a1,1,0,0,0-.21.33,1.09,1.09,0,0,0-.07.4A1.38,1.38,0,0,0,9,63.4a1,1,0,0,0,.23.32,1.08,1.08,0,0,0,.34.21A1,1,0,0,0,10,64a.86.86,0,0,0,.39-.09.9.9,0,0,0,.32-.23l4.93-5.21,26.51.31a6.2,6.2,0,0,0,3.55-1l14.53-9.56A2.86,2.86,0,0,0,61.64,45.13Z" transform="translate(-3 0)" fill="#d8001a"/></svg>