<svg xmlns="http://www.w3.org/2000/svg" width="65" height="65" viewBox="0 0 65 65"><path d="M54.79,18.83l9.92-9.91A1,1,0,0,0,64,7.21H57.79V1a1,1,0,0,0-.62-.92,1,1,0,0,0-1.09.21l-9.91,9.92a1,1,0,0,0-.3.71v4.72a28,28,0,1,0,3.49,3.49h4.72A1,1,0,0,0,54.79,18.83ZM27.94,63A25.95,25.95,0,1,1,45.56,18l-6.25,6.25a17.19,17.19,0,1,0,1.41,1.41L47,19.44A25.93,25.93,0,0,1,27.94,63Zm-.7-25.24a1,1,0,0,0,1.41,0l3-3a4.4,4.4,0,1,1-1.42-1.42l-3,3A1,1,0,0,0,27.24,37.76Zm4.47-5.88a6.32,6.32,0,0,0-3.77-1.23,6.41,6.41,0,1,0,6.41,6.41,6.32,6.32,0,0,0-1.23-3.77l6.19-6.18a15.18,15.18,0,1,1-1.42-1.42ZM47.87,17.13v-5.8l7.92-7.92v4.8a1,1,0,0,0,1,1h4.8l-7.92,7.92Z" transform="translate(0 0)" fill="#d8001a"/></svg>