<svg xmlns="http://www.w3.org/2000/svg" width="47.39" height="64" viewBox="0 0 47.39 64"><path d="M26.87,10.81a1.19,1.19,0,0,0-.31-.23,1.24,1.24,0,0,0-.38-.09,1,1,0,0,0-.38.08.79.79,0,0,0-.31.23c-.65.71-15.86,17.7-17.37,33v.08A17.7,17.7,0,0,0,8,45.94,18.06,18.06,0,0,0,37,60.29a.89.89,0,0,0,.35-.6A.91.91,0,0,0,37.2,59a1,1,0,0,0-.61-.36,1,1,0,0,0-.68.18A16.23,16.23,0,0,1,9.84,45.94,15.66,15.66,0,0,1,10,44v-.12C11.27,31,23.14,16.36,26.15,12.83,42.51,32.16,42.27,43.94,42.27,44.05v1.89a16.47,16.47,0,0,1-.64,4.53.89.89,0,0,0,0,.36,1.23,1.23,0,0,0,.11.34,1,1,0,0,0,.23.28.9.9,0,0,0,.68.2,1,1,0,0,0,.34-.11,1,1,0,0,0,.28-.23,1.07,1.07,0,0,0,.16-.32,18,18,0,0,0,.72-5.05V44.09C44.15,43.22,44.18,30.89,26.87,10.81Z" transform="translate(-8)" fill="#d8001a"/><path d="M15.35,41.1a1.09,1.09,0,0,0-.36,0,1,1,0,0,0-.33.15.95.95,0,0,0-.36.6c-.05.3-1.08,7.3,3.05,11.89,2.25,2.52,5.58,3.79,9.89,3.79l1.08,0a.9.9,0,0,0,.64-.3,1,1,0,0,0,.24-.66,1.06,1.06,0,0,0-.09-.35.86.86,0,0,0-.52-.47,1,1,0,0,0-.35-.06c-4.27.21-7.46-.85-9.52-3.14-3.54-3.93-2.61-10.32-2.6-10.38a.87.87,0,0,0,0-.36,1,1,0,0,0-.15-.33.85.85,0,0,0-.26-.24A.89.89,0,0,0,15.35,41.1Z" transform="translate(-8)" fill="#d8001a"/><path d="M40,56.42a.92.92,0,1,0-.92-.92A.92.92,0,0,0,40,56.42Z" transform="translate(-8)" fill="#d8001a"/><path d="M32,10H32s3.72,0,5.45,1.77,1.77,5.42,1.77,5.46a1.1,1.1,0,0,0,0,.18.14.14,0,0,0,0,.07l0,.11a1,1,0,0,0,.85.56.92.92,0,0,0,.92-.87v-.05s0-3.72,1.77-5.46S48.28,10,48.31,10A.93.93,0,0,0,49,8.41a1,1,0,0,0-.66-.27c-1,0-4-.31-5.45-1.76C41.12,4.64,41.09,1,41.09.92A.92.92,0,0,0,39.54.25a.91.91,0,0,0-.29.62V.92s0,3.72-1.77,5.46S32.06,8.14,32,8.14l-.19,0a1,1,0,0,0-.52.32.9.9,0,0,0-.21.58.93.93,0,0,0,.25.64A.9.9,0,0,0,32,10Zm6.81-2.3a6.61,6.61,0,0,0,1.38-2.14,6.48,6.48,0,0,0,1.39,2.14A6.58,6.58,0,0,0,43.7,9.07a6.72,6.72,0,0,0-2.14,1.38,6.63,6.63,0,0,0-1.39,2.15,6.77,6.77,0,0,0-1.38-2.15,6.83,6.83,0,0,0-2.14-1.38,6.69,6.69,0,0,0,2.14-1.39Z" transform="translate(-8)" fill="#d8001a"/><path d="M54.52,23.61h-.05c-.72,0-2.81-.22-3.8-1.21s-1.21-3.09-1.22-3.81a.92.92,0,0,0-.92-.92.92.92,0,0,0-.92.92c0,.72-.21,2.81-1.21,3.81a6.27,6.27,0,0,1-3.8,1.21.91.91,0,0,0-.65.27.89.89,0,0,0-.27.65.93.93,0,0,0,.25.64.92.92,0,0,0,.62.28h0a6.28,6.28,0,0,1,3.81,1.22c1,1,1.21,3.08,1.21,3.8a.91.91,0,0,0,.27.65,1,1,0,0,0,.65.27.91.91,0,0,0,.65-.27.88.88,0,0,0,.27-.65c0-.72.22-2.81,1.22-3.8a6.22,6.22,0,0,1,3.8-1.22.92.92,0,0,0,.92-.92.92.92,0,0,0-.87-.92Zm-5.16,1.75a5.23,5.23,0,0,0-.83,1.16,4.44,4.44,0,0,0-2-2,4.59,4.59,0,0,0,1.16-.84,4.72,4.72,0,0,0,.84-1.15,4.49,4.49,0,0,0,2,2,5,5,0,0,0-1.15.83Z" transform="translate(-8)" fill="#d8001a"/><path d="M33.18,31.39l.18,0a.93.93,0,0,0,.74-.9.92.92,0,0,0-.88-.92h0a5.31,5.31,0,0,1-3.22-1,5.35,5.35,0,0,1-1-3.22.92.92,0,0,0-.92-.92.91.91,0,0,0-.65.27.93.93,0,0,0-.27.65,5.41,5.41,0,0,1-1,3.22,5.49,5.49,0,0,1-3.22,1,.55.55,0,0,0-.18,0l-.16,0h0a1,1,0,0,0-.56.85.92.92,0,0,0,.88.92h0a5.33,5.33,0,0,1,3.22,1,5.35,5.35,0,0,1,1,3.22.92.92,0,0,0,1.84,0,5.34,5.34,0,0,1,1-3.22A5.38,5.38,0,0,1,33.18,31.39Zm-4.52-.28A3.74,3.74,0,0,0,28,32a4.06,4.06,0,0,0-.64-.84,4,4,0,0,0-.84-.64A3.94,3.94,0,0,0,28,29a3.74,3.74,0,0,0,.64.84,4.06,4.06,0,0,0,.84.64,4.06,4.06,0,0,0-.84.64Z" transform="translate(-8)" fill="#d8001a"/></svg>