<svg xmlns="http://www.w3.org/2000/svg" width="64" height="58.72" viewBox="0 0 64 58.72"><path d="M63.87,24.57a.9.9,0,0,0-.36-.31,42.65,42.65,0,0,0-13.12-3.21,9.73,9.73,0,0,0,1.55-.77A9.58,9.58,0,0,0,44.82,2.8a9.52,9.52,0,0,0-6.94,6.05,9.76,9.76,0,0,0-2.29-1.36,9.55,9.55,0,0,0-9.51,1.28,9.42,9.42,0,0,0-2.25-3.45A9.52,9.52,0,0,0,13.9,3.15,9.47,9.47,0,0,0,9.61,6.24a9.54,9.54,0,0,0-1.09,10.1,9.46,9.46,0,0,0,3.53,3.94A8.91,8.91,0,0,0,13.6,21,42.71,42.71,0,0,0,.49,24.26a.9.9,0,0,0-.36.31A.9.9,0,0,0,0,25V56.27a.87.87,0,0,0,.24.6.84.84,0,0,0,.6.25h14v3.34a.82.82,0,0,0,.84.84H48.22a.87.87,0,0,0,.6-.24.85.85,0,0,0,.24-.6V57.12h14.1a.85.85,0,0,0,.84-.85V25A.94.94,0,0,0,63.87,24.57Zm-23-4.91a9.61,9.61,0,0,0,2.46,1.42c-1.13.1-2.26.24-3.38.43A9.67,9.67,0,0,0,40.9,19.66ZM41.91,6a7.83,7.83,0,0,1,4.77-1.75,7.89,7.89,0,1,1-5.3,13.57h0a10.59,10.59,0,0,0,.13-1.5A9.62,9.62,0,0,0,39.89,11a9,9,0,0,0-.66-.84A7.88,7.88,0,0,1,41.91,6ZM27.54,9.79a7.89,7.89,0,0,1,4.39-1.33h0a7.9,7.9,0,0,1,7.89,7.9,8,8,0,0,1-1.33,4.39,7.9,7.9,0,0,1-12.15,1.19,7.89,7.89,0,0,1,1.2-12.14ZM23.08,20a9.08,9.08,0,0,0,.78,1.48c-1.06-.19-2.14-.31-3.22-.41A9.46,9.46,0,0,0,23,19.74C23,19.83,23,19.92,23.08,20ZM9.77,15a7.89,7.89,0,1,1,15-5,9.62,9.62,0,0,0-2.19,4.41,9.31,9.31,0,0,0,0,3.45A7.89,7.89,0,0,1,9.77,15ZM9.24,55.44V32.55a.84.84,0,0,0-1.69,0V55.44H1.69V25.58a43,43,0,0,1,15.45-3,40,40,0,0,1,8.51,1,9.78,9.78,0,0,0,1,.75,9.22,9.22,0,0,0,1.8.91,42.72,42.72,0,0,0-13.12,3.22.9.9,0,0,0-.36.31.84.84,0,0,0-.13.46V55.44Zm38.14,4.18H41.51V36.73a.87.87,0,0,0-.85-.81.84.84,0,0,0-.58.24.82.82,0,0,0-.26.57V59.62H24V36.73a.84.84,0,0,0-1.68,0V59.62H16.47V56.34s0,0,0-.06,0,0,0-.06V29.76a43,43,0,0,1,15.46-3,47,47,0,0,1,15.45,3Zm14.93-4.18H56.44V32.55a.84.84,0,0,0-.84-.81A.86.86,0,0,0,55,32a.89.89,0,0,0-.26.58V55.44H49.06V29.2a.78.78,0,0,0-.14-.46.8.8,0,0,0-.37-.31,49.16,49.16,0,0,0-13.11-3.18,9.71,9.71,0,0,0,2.72-1.65,40.47,40.47,0,0,1,8.7-1,43,43,0,0,1,15.45,3Z" transform="translate(0 -2.58)" fill="#0b1c31"/></svg>
