<svg xmlns="http://www.w3.org/2000/svg" viewBox="0 0 187 59.99"><path d="M112.9,4.89l-3.19,38.28h-9l3.4-28.35L95.29,43.17H88.24l-.41-28.41L82.56,43.17H73.63L82.24,4.89H94.41l.1,20.18,6.33-20.18H112.9Zm21.23,11.54c0-2-1.18-3-3.54-3h-.52l-1.31,8.48c.33,0,.66.05,1,.05q4.38,0,4.38-5.48Zm9.88-.8q0,7.08-3.91,11t-11.28,3.86a3.86,3.86,0,0,1-.68,0h-.73l-2,12.7H115l5.9-38.28h8.94q7.35,0,10.73,2.47C142.83,9,144,11.76,144,15.63ZM167.66,4.89l-1.41,9.28h-8l-.79,4.9h7.27l-1.36,9H156.1l-.91,5.24h8l-1.52,9.88H143.32l5.87-38.28ZM187,33.67l-1.46,9.5H167.48l5.89-38.28h10.44l-4.43,28.78ZM73.57,4.89l-5.9,38.28H57.26L63.17,4.89Z" fill="#706f6f"/><path d="M47,23.49A23.51,23.51,0,0,0,23.52,0C10.53,0,0,9.78,0,22.76S10.53,47,23.52,47A23.51,23.51,0,0,0,47,23.49Zm-5.76-5.66a1.64,1.64,0,0,1,.91.27,1.67,1.67,0,0,1,.61.73,1.62,1.62,0,0,1,.09,1,1.59,1.59,0,0,1-.44.84,1.64,1.64,0,0,1-.85.45,1.67,1.67,0,0,1-1.68-.7,1.65,1.65,0,0,1-.27-.92,1.58,1.58,0,0,1,.48-1.14A1.6,1.6,0,0,1,41.28,17.83Zm0,4.48a1.64,1.64,0,0,1,.66.08,1.8,1.8,0,0,1,.58.35,1.67,1.67,0,0,1,.39.55,1.61,1.61,0,0,1,.13.65,1.65,1.65,0,0,1-.13.66,1.74,1.74,0,0,1-.39.54,1.6,1.6,0,0,1-1.24.43,1.61,1.61,0,0,1-1.08-.52,1.65,1.65,0,0,1,0-2.22A1.65,1.65,0,0,1,41.28,22.31ZM37.28,9a1.65,1.65,0,0,1,1.51,1,1.63,1.63,0,0,1,.1.95A1.65,1.65,0,0,1,37.6,12.2a1.63,1.63,0,0,1-1-.1,1.59,1.59,0,0,1-.73-.6,1.63,1.63,0,0,1,.2-2.07A1.69,1.69,0,0,1,37.28,9Zm0,4.45a1.64,1.64,0,0,1,1.21,2.78,1.63,1.63,0,0,1-1.79.37,1.64,1.64,0,0,1-.74-.61,1.63,1.63,0,0,1,.19-2.06A1.6,1.6,0,0,1,37.28,13.4Zm0,4.43a1.64,1.64,0,0,1,.91.27,1.61,1.61,0,0,1,.6.74,1.63,1.63,0,0,1,.1.95,1.61,1.61,0,0,1-1.3,1.28,1.67,1.67,0,0,1-1.68-.7,1.65,1.65,0,0,1-.27-.92,1.5,1.5,0,0,1,.13-.62,1.58,1.58,0,0,1,.35-.53,1.69,1.69,0,0,1,.53-.35A1.72,1.72,0,0,1,37.28,17.83Zm0,4.48a1.73,1.73,0,0,1,.91.27,1.61,1.61,0,0,1,.6.74,1.63,1.63,0,0,1,.1.95,1.7,1.7,0,0,1-.45.83,1.61,1.61,0,0,1-.84.45,1.62,1.62,0,0,1-1.68-.69,1.65,1.65,0,0,1-.28-.91,1.63,1.63,0,0,1,.48-1.16A1.64,1.64,0,0,1,37.28,22.31Zm0,4.31a1.62,1.62,0,0,1,.93.26,1.72,1.72,0,0,1,.62.74,1.65,1.65,0,0,1,.1,1,1.7,1.7,0,0,1-.46.84,1.63,1.63,0,0,1-1.81.34,1.72,1.72,0,0,1-.73-.63,1.69,1.69,0,0,1-.25-.93,1.64,1.64,0,0,1,1.6-1.63ZM33.28,9A1.87,1.87,0,0,1,34,9a1.57,1.57,0,0,1,.57.34,1.63,1.63,0,0,1,.39.55,1.6,1.6,0,0,1,0,1.31,1.63,1.63,0,0,1-.39.55,1.57,1.57,0,0,1-.57.34,1.52,1.52,0,0,1-.67.09,1.63,1.63,0,0,1-1.07-.52,1.63,1.63,0,0,1,0-2.23A1.68,1.68,0,0,1,33.28,9Zm0,4.45a1.58,1.58,0,0,1,.92.27,1.67,1.67,0,0,1,.61.73,1.71,1.71,0,0,1,.09.95,1.65,1.65,0,0,1-1.29,1.29,1.63,1.63,0,0,1-1-.1,1.59,1.59,0,0,1-.73-.6,1.69,1.69,0,0,1-.28-.92,1.71,1.71,0,0,1,.48-1.15A1.65,1.65,0,0,1,33.28,13.4Zm0,4.43a1.65,1.65,0,0,1,.92.27,1.67,1.67,0,0,1,.61.73,1.71,1.71,0,0,1,.09,1,1.65,1.65,0,0,1-1.29,1.29,1.63,1.63,0,0,1-1-.1,1.59,1.59,0,0,1-.73-.6,1.62,1.62,0,0,1,.2-2.06A1.62,1.62,0,0,1,33.28,17.83Zm0,4.43a1.67,1.67,0,0,1,.67.08,1.75,1.75,0,0,1,.57.35,1.53,1.53,0,0,1,.39.55,1.62,1.62,0,0,1,.14.65,1.66,1.66,0,0,1-.14.66,1.7,1.7,0,0,1-1,.89,1.67,1.67,0,0,1-.67.08A1.59,1.59,0,0,1,32.21,25a1.64,1.64,0,0,1,1.07-2.74Zm0,4.31a1.65,1.65,0,0,1,.92.27,1.63,1.63,0,0,1,.7,1.69,1.65,1.65,0,0,1-.45.84,1.59,1.59,0,0,1-.84.44,1.62,1.62,0,0,1-1-.09,1.67,1.67,0,0,1-.73-.61,1.65,1.65,0,0,1-.28-.91,1.71,1.71,0,0,1,.48-1.15A1.66,1.66,0,0,1,33.28,26.57Zm-3.84-22a1.65,1.65,0,0,1,.91.28,1.59,1.59,0,0,1,.6.73,1.62,1.62,0,0,1,.09.95,1.67,1.67,0,0,1-.44.84,1.67,1.67,0,0,1-1.79.35,1.61,1.61,0,0,1-.74-.6,1.64,1.64,0,0,1-.27-.91,1.68,1.68,0,0,1,.12-.63A1.58,1.58,0,0,1,28.27,5a2,2,0,0,1,.54-.36A1.68,1.68,0,0,1,29.44,4.56Zm0,4.39A1.65,1.65,0,0,1,31,10a1.62,1.62,0,0,1,.09.95,1.67,1.67,0,0,1-.44.84,1.73,1.73,0,0,1-.84.45,1.63,1.63,0,0,1-1-.1,1.61,1.61,0,0,1-.74-.6A1.64,1.64,0,0,1,29.44,9Zm0,4.45a1.64,1.64,0,0,1,.91.27,1.61,1.61,0,0,1,.6.74,1.55,1.55,0,0,1,.09.95,1.58,1.58,0,0,1-.45.83,1.61,1.61,0,0,1-.84.45,1.63,1.63,0,0,1-.95-.1,1.55,1.55,0,0,1-.73-.61A1.62,1.62,0,0,1,27.8,15a1.67,1.67,0,0,1,.12-.62,1.77,1.77,0,0,1,.36-.53,1.58,1.58,0,0,1,.53-.35A1.51,1.51,0,0,1,29.44,13.4Zm0,4.43a1.64,1.64,0,0,1,.91.27,1.61,1.61,0,0,1,.6.74,1.55,1.55,0,0,1,.09.95,1.61,1.61,0,0,1-.45.84,1.67,1.67,0,0,1-.84.44,1.63,1.63,0,0,1-.95-.1,1.59,1.59,0,0,1-.73-.6,1.69,1.69,0,0,1-.15-1.54,1.77,1.77,0,0,1,.36-.53,1.58,1.58,0,0,1,.53-.35A1.68,1.68,0,0,1,29.44,17.83Zm0,4.43a1.65,1.65,0,0,1,.91.28,1.59,1.59,0,0,1,.6.73,1.62,1.62,0,0,1,.09.95,1.68,1.68,0,0,1-.44.83,1.65,1.65,0,0,1-.84.45,1.71,1.71,0,0,1-1-.09,1.75,1.75,0,0,1-.74-.6,1.6,1.6,0,0,1,.21-2,1.67,1.67,0,0,1,1.12-.47Zm0,17.28a1.64,1.64,0,0,1,.91.27,1.65,1.65,0,0,1,.24,2.53,1.67,1.67,0,0,1-.84.44,1.63,1.63,0,0,1-.95-.1,1.59,1.59,0,0,1-.73-.6,1.69,1.69,0,0,1-.15-1.54,1.77,1.77,0,0,1,.36-.53,1.58,1.58,0,0,1,.53-.35A1.68,1.68,0,0,1,29.4,39.54ZM25.47,4.6a1.63,1.63,0,0,1,1.52,1,1.59,1.59,0,0,1,.1.94A1.65,1.65,0,0,1,25.8,7.84a1.55,1.55,0,0,1-.95-.09,1.59,1.59,0,0,1-.73-.6A1.64,1.64,0,0,1,25.47,4.6Zm0,4.39a1.73,1.73,0,0,1,.91.27A1.63,1.63,0,0,1,27,10a1.61,1.61,0,0,1-.35,1.78,1.7,1.7,0,0,1-.84.46,1.63,1.63,0,0,1-.95-.1,1.59,1.59,0,0,1-.73-.6,1.65,1.65,0,0,1-.28-.91,1.6,1.6,0,0,1,.48-1.15A1.65,1.65,0,0,1,25.47,9Zm0,4.45a1.57,1.57,0,0,1,.91.27,1.61,1.61,0,0,1,.61.73,1.63,1.63,0,0,1,.1,1,1.68,1.68,0,0,1-.45.84,1.61,1.61,0,0,1-.84.45,1.63,1.63,0,0,1-.95-.1,1.61,1.61,0,0,1-.74-.6,1.68,1.68,0,0,1-.27-.92,1.62,1.62,0,0,1,1.63-1.62Zm0,4.43a1.64,1.64,0,0,1,.91.27,1.61,1.61,0,0,1,.61.73,1.63,1.63,0,0,1,.1.95,1.68,1.68,0,0,1-.45.84,1.61,1.61,0,0,1-.84.45,1.63,1.63,0,0,1-.95-.1,1.61,1.61,0,0,1-.74-.6A1.69,1.69,0,0,1,24,18.87a1.77,1.77,0,0,1,.36-.53,1.58,1.58,0,0,1,.53-.35A1.63,1.63,0,0,1,25.47,17.87Zm0,4.43a1.64,1.64,0,0,1,.91.27,1.61,1.61,0,0,1,.61.73,1.63,1.63,0,0,1,.1.95,1.65,1.65,0,0,1-1.29,1.29,1.71,1.71,0,0,1-.95-.09,1.59,1.59,0,0,1-.73-.6,1.65,1.65,0,0,1-.28-.91,1.64,1.64,0,0,1,1.59-1.63Zm0,4.38a1.64,1.64,0,0,1,.91.27,1.57,1.57,0,0,1,.61.74,1.6,1.6,0,0,1-.36,1.79,1.68,1.68,0,0,1-.84.45,1.71,1.71,0,0,1-.95-.1,1.67,1.67,0,0,1-1-1.53,1.68,1.68,0,0,1,.12-.63,1.58,1.58,0,0,1,.35-.53,1.81,1.81,0,0,1,.53-.35,1.51,1.51,0,0,1,.63-.13Zm0,4.42a1.73,1.73,0,0,1,.91.27,1.66,1.66,0,0,1,.71,1.69,1.65,1.65,0,0,1-1.29,1.29,1.64,1.64,0,0,1-2-1.62,1.64,1.64,0,0,1,1.63-1.63Zm0,4.37a1.64,1.64,0,0,1,1.52,1,1.63,1.63,0,0,1,.1,1,1.65,1.65,0,0,1-.45.84,1.68,1.68,0,0,1-.84.45,1.71,1.71,0,0,1-1-.09,1.67,1.67,0,0,1-.73-.61,1.63,1.63,0,0,1-.28-.91,1.64,1.64,0,0,1,1.63-1.63Zm0,4.38a1.62,1.62,0,0,1,1.5,1,1.63,1.63,0,0,1-1.18,2.22,1.67,1.67,0,0,1-.94-.09,1.6,1.6,0,0,1-.73-.6,1.62,1.62,0,0,1,1.35-2.53ZM5.79,25.52A1.59,1.59,0,0,1,4.71,25a1.64,1.64,0,0,1,1.74-2.66,1.91,1.91,0,0,1,.58.35,1.64,1.64,0,0,1,.38.55,1.46,1.46,0,0,1,.14.65,1.51,1.51,0,0,1-.14.66,1.71,1.71,0,0,1-.38.54,1.73,1.73,0,0,1-.58.35A1.64,1.64,0,0,1,5.79,25.52Zm0-4.43a1.65,1.65,0,0,1-.92-.27,1.75,1.75,0,0,1-.6-.74,1.64,1.64,0,0,1,1.2-2.23,1.68,1.68,0,0,1,.94.09,1.75,1.75,0,0,1,.74.6,1.64,1.64,0,0,1,.27.91,1.51,1.51,0,0,1-.12.63,1.58,1.58,0,0,1-.35.53,1.6,1.6,0,0,1-.54.36A1.67,1.67,0,0,1,5.79,21.09Zm3.85,8.75a1.69,1.69,0,0,1-.9-.29A1.65,1.65,0,0,1,8.51,27a1.67,1.67,0,0,1,.84-.44,1.59,1.59,0,0,1,.94.1,1.61,1.61,0,0,1,.74.6,1.67,1.67,0,0,1,.15,1.53,1.73,1.73,0,0,1-.35.54,1.58,1.58,0,0,1-.53.35,1.69,1.69,0,0,1-.63.13Zm0-4.32a1.57,1.57,0,0,1-.91-.27,1.67,1.67,0,0,1-.61-.73,1.63,1.63,0,0,1-.1-.95,1.68,1.68,0,0,1,.45-.84,1.64,1.64,0,0,1,.85-.45A1.67,1.67,0,0,1,11,23a1.65,1.65,0,0,1,.27.92,1.62,1.62,0,0,1-1.63,1.62Zm0-4.43a1.64,1.64,0,0,1-.91-.27,1.67,1.67,0,0,1-.61-.73,1.71,1.71,0,0,1-.1-.95,1.68,1.68,0,0,1,.45-.84,1.61,1.61,0,0,1,.84-.45,1.71,1.71,0,0,1,.95.09,1.59,1.59,0,0,1,.73.6,1.65,1.65,0,0,1,.28.91,1.68,1.68,0,0,1-.12.63,1.58,1.58,0,0,1-.35.53,1.77,1.77,0,0,1-.53.36A1.68,1.68,0,0,1,9.67,21.09Zm0-4.43a1.64,1.64,0,0,1-.91-.27,1.64,1.64,0,0,1-.71-1.68,1.68,1.68,0,0,1,.45-.84,1.65,1.65,0,0,1,1.79-.36,1.59,1.59,0,0,1,.73.6,1.63,1.63,0,0,1-.2,2.07A1.63,1.63,0,0,1,9.67,16.66Zm0-4.44A1.73,1.73,0,0,1,8.76,12a1.7,1.7,0,0,1-.61-.74,1.63,1.63,0,0,1-.1-1A1.64,1.64,0,0,1,9.35,9,1.66,1.66,0,0,1,11,9.68a1.64,1.64,0,0,1,.27.91,1.64,1.64,0,0,1-1.63,1.63Zm4,17.62a1.63,1.63,0,0,1-.91-.28,1.61,1.61,0,0,1-.6-.74,1.59,1.59,0,0,1-.1-.94,1.65,1.65,0,0,1,1.29-1.29,1.63,1.63,0,0,1,1,.1,1.59,1.59,0,0,1,.73.6,1.63,1.63,0,0,1,.28.91,1.72,1.72,0,0,1-.12.63,1.77,1.77,0,0,1-.36.53,1.58,1.58,0,0,1-.53.35A1.55,1.55,0,0,1,13.67,29.84Zm0-4.32A1.61,1.61,0,0,1,12.59,25a1.65,1.65,0,0,1,0-2.22,1.66,1.66,0,0,1,1.74-.44,1.8,1.8,0,0,1,.58.35,1.53,1.53,0,0,1,.39.55,1.62,1.62,0,0,1,.14.65,1.66,1.66,0,0,1-.14.66,1.59,1.59,0,0,1-.39.54,1.6,1.6,0,0,1-1.24.43Zm0-4.43a1.65,1.65,0,0,1-1.61-1.95,1.68,1.68,0,0,1,.45-.84,1.61,1.61,0,0,1,.84-.45,1.62,1.62,0,0,1,1.68.69,1.65,1.65,0,0,1,.28.91,1.68,1.68,0,0,1-.12.63,1.77,1.77,0,0,1-.36.53,1.47,1.47,0,0,1-.53.36A1.72,1.72,0,0,1,13.67,21.09Zm0-4.43a1.63,1.63,0,0,1-.91-.28,1.59,1.59,0,0,1-.6-.73,1.63,1.63,0,0,1-.1-1,1.73,1.73,0,0,1,.45-.84,1.67,1.67,0,0,1,.84-.44,1.62,1.62,0,0,1,1,.09,1.59,1.59,0,0,1,.73.6,1.65,1.65,0,0,1,.28.91,1.63,1.63,0,0,1-.48,1.16A1.64,1.64,0,0,1,13.67,16.66Zm0-4.44a1.65,1.65,0,0,1-1.08-2.75A1.7,1.7,0,0,1,13.67,9a1.85,1.85,0,0,1,.66.09,1.6,1.6,0,0,1,1,.89,1.6,1.6,0,0,1,0,1.31,1.6,1.6,0,0,1-1,.89A1.49,1.49,0,0,1,13.67,12.22Zm4-7.66a1.64,1.64,0,0,1,.91.27,1.7,1.7,0,0,1,.61.74,1.66,1.66,0,0,1-.35,1.78A1.61,1.61,0,0,1,18,7.8a1.55,1.55,0,0,1-.95-.09,1.61,1.61,0,0,1-.74-.6A1.64,1.64,0,0,1,16,6.2a1.68,1.68,0,0,1,.12-.63A1.58,1.58,0,0,1,17,4.69,1.51,1.51,0,0,1,17.67,4.56Zm0,38.19a1.65,1.65,0,0,1-.92-.27,1.67,1.67,0,0,1-.61-.73,1.71,1.71,0,0,1-.09-1,1.62,1.62,0,0,1,1.28-1.29,1.71,1.71,0,0,1,1,.09,1.61,1.61,0,0,1,.74.6,1.64,1.64,0,0,1,.27.91,1.51,1.51,0,0,1-.12.63,1.58,1.58,0,0,1-.35.53,1.77,1.77,0,0,1-.53.36A1.67,1.67,0,0,1,17.67,42.75Zm0-17.23a1.58,1.58,0,0,1-.92-.27,1.67,1.67,0,0,1-.61-.73,1.71,1.71,0,0,1-.09-.95,1.65,1.65,0,0,1,1.29-1.29,1.63,1.63,0,0,1,.95.1,1.62,1.62,0,0,1,1,1.52,1.67,1.67,0,0,1-.12.62,1.58,1.58,0,0,1-.88.88A1.67,1.67,0,0,1,17.67,25.52Zm0-4.43a1.65,1.65,0,0,1-.92-.27,1.67,1.67,0,0,1-.61-.73,1.71,1.71,0,0,1-.09-.95,1.62,1.62,0,0,1,1.28-1.29,1.71,1.71,0,0,1,1,.09,1.61,1.61,0,0,1,.74.6,1.64,1.64,0,0,1,.27.91,1.51,1.51,0,0,1-.12.63,1.58,1.58,0,0,1-.35.53,1.77,1.77,0,0,1-.53.36A1.67,1.67,0,0,1,17.67,21.09Zm0-4.43a1.7,1.7,0,0,1-.94-.22,1.59,1.59,0,0,1-.65-.71,1.64,1.64,0,0,1,.28-1.82,1.59,1.59,0,0,1,.83-.48,1.63,1.63,0,0,1,1.72.67,1.63,1.63,0,0,1-1.34,2.56Zm-.1-4.44a1.74,1.74,0,0,1-.92-.27,1.63,1.63,0,0,1-.7-1.69,1.65,1.65,0,0,1,.45-.84A1.68,1.68,0,0,1,17.24,9a1.71,1.71,0,0,1,1,.1,1.67,1.67,0,0,1,.73.61,1.57,1.57,0,0,1,.27.91,1.62,1.62,0,0,1-1.62,1.63Zm3.94-7.66a1.63,1.63,0,0,1,.91.28,1.67,1.67,0,0,1,.61.73,1.71,1.71,0,0,1,.09.95A1.62,1.62,0,0,1,21.83,7.8a1.59,1.59,0,0,1-.94-.09,1.61,1.61,0,0,1-.74-.6,1.65,1.65,0,0,1-.28-.91A1.51,1.51,0,0,1,20,5.57,1.58,1.58,0,0,1,20.35,5a1.77,1.77,0,0,1,.53-.36A1.72,1.72,0,0,1,21.51,4.56Zm0,38.51a1.62,1.62,0,0,1-.9-.28,1.56,1.56,0,0,1-.59-.73,1.52,1.52,0,0,1-.09-.94,1.68,1.68,0,0,1,.44-.83,1.59,1.59,0,0,1,.84-.44,1.68,1.68,0,0,1,.94.09,1.65,1.65,0,0,1,.73.6,1.61,1.61,0,0,1,.27.9,1.68,1.68,0,0,1-.12.63,1.77,1.77,0,0,1-.36.53,1.58,1.58,0,0,1-.53.35A1.68,1.68,0,0,1,21.51,43.07Zm0-4.37A1.63,1.63,0,0,1,20.44,36a1.59,1.59,0,0,1,1.07-.52,1.69,1.69,0,0,1,.67.08,1.47,1.47,0,0,1,.57.35,1.5,1.5,0,0,1,.39.54,1.66,1.66,0,0,1,.14.66,1.62,1.62,0,0,1-.14.65,1.53,1.53,0,0,1-.39.55,1.57,1.57,0,0,1-.57.34A1.54,1.54,0,0,1,21.51,38.7Zm0-4.36a1.65,1.65,0,0,1-.91-.28,1.59,1.59,0,0,1-.6-.73,1.55,1.55,0,0,1-.09-.95,1.59,1.59,0,0,1,.44-.84,1.73,1.73,0,0,1,.84-.45,1.63,1.63,0,0,1,.95.1,1.61,1.61,0,0,1,.74.6,1.65,1.65,0,0,1-.21,2.07A1.67,1.67,0,0,1,21.51,34.34Zm0-4.44a1.75,1.75,0,0,1-.91-.29,1.62,1.62,0,0,1-.68-1.69,1.7,1.7,0,0,1,.46-.84,1.72,1.72,0,0,1,.85-.43A1.67,1.67,0,0,1,23,28.92a1.77,1.77,0,0,1-.36.53,1.58,1.58,0,0,1-.53.35,1.51,1.51,0,0,1-.63.13Zm0-4.35A1.59,1.59,0,0,1,20.45,25a1.64,1.64,0,0,1,1.07-2.74,1.69,1.69,0,0,1,.67.08,1.75,1.75,0,0,1,.57.35,1.53,1.53,0,0,1,.39.55,1.62,1.62,0,0,1,.14.65,1.66,1.66,0,0,1-.14.66,1.7,1.7,0,0,1-1,.89A1.69,1.69,0,0,1,21.52,25.55Zm0-4.43a1.64,1.64,0,0,1-.91-.27,1.61,1.61,0,0,1-.6-.74,1.55,1.55,0,0,1-.09-.95,1.6,1.6,0,0,1,.44-.83,1.65,1.65,0,0,1,.84-.45,1.71,1.71,0,0,1,.95.09,1.75,1.75,0,0,1,.74.6,1.64,1.64,0,0,1,.27.91,1.68,1.68,0,0,1-.12.63,1.71,1.71,0,0,1-.89.89A1.68,1.68,0,0,1,21.52,21.12Zm0-4.43a1.65,1.65,0,0,1-.91-.28,1.59,1.59,0,0,1-.6-.73,1.55,1.55,0,0,1-.09-.95,1.63,1.63,0,0,1,.44-.84,1.71,1.71,0,0,1,.84-.44,1.65,1.65,0,0,1,1.69.69,1.64,1.64,0,0,1,.27.91,1.64,1.64,0,0,1-1.64,1.64Zm0-4.44a1.63,1.63,0,0,1-1.07-.52,1.63,1.63,0,0,1,0-2.23A1.68,1.68,0,0,1,21.52,9a1.9,1.9,0,0,1,.67.09,1.57,1.57,0,0,1,.57.34,1.63,1.63,0,0,1,.39.55,1.6,1.6,0,0,1,0,1.31,1.63,1.63,0,0,1-.39.55,1.57,1.57,0,0,1-.57.34A1.54,1.54,0,0,1,21.52,12.25Z" fill="#d8001a"/><path d="M137.63,54.18h3v5.43A27.13,27.13,0,0,1,137,60c-3.39,0-4.29-2.08-4.29-5.65s.93-5.72,4.26-5.72a21.13,21.13,0,0,1,3.63.41v1a24.88,24.88,0,0,0-3.45-.34c-2.56,0-3.12,1.49-3.12,4.62s.55,4.57,3.11,4.57a14.69,14.69,0,0,0,2.29-.23v-3.4h-1.84Z" fill="#706f6f"/><path d="M145.52,55.6v4.23h-1.23v-11h4.09c2.32,0,3.54,1,3.54,3.35a3,3,0,0,1-2,3.22l2.13,4.48h-1.36l-2-4.23Zm2.86-5.73h-2.86v4.64h2.88c1.66,0,2.26-1,2.26-2.38a1.93,1.93,0,0,0-.08-.92,2.06,2.06,0,0,0-.49-.78,2,2,0,0,0-1.71-.56Z" fill="#706f6f"/><path d="M154.89,54.35c0-3.64,1-5.73,4.36-5.73s4.39,2.06,4.39,5.73-1,5.64-4.39,5.64S154.89,58.06,154.89,54.35Zm7.47,0c0-3-.58-4.64-3.11-4.64s-3.07,1.64-3.07,4.64.54,4.56,3.1,4.56S162.36,57.46,162.36,54.35Z" fill="#706f6f"/><path d="M170.83,58.91c1.72,0,2.7-.68,2.7-2.4V48.78h1.22v7.7c0,2.52-1.4,3.51-3.92,3.51S167,59,167,56.48v-7.7h1.23v7.73C168.24,58.24,169.17,58.91,170.83,58.91Z" fill="#706f6f"/><path d="M179.82,56.11v3.72h-1.24v-11h4c2.42,0,3.54,1.17,3.54,3.56s-1.12,3.77-3.54,3.77ZM182.61,55c1.61,0,2.29-1,2.29-2.69s-.68-2.47-2.29-2.47h-2.79V55Z" fill="#706f6f"/></svg>