<svg xmlns="http://www.w3.org/2000/svg" width="26.67" height="26.67" viewBox="0 0 26.67 26.67"><path d="M29.33,21.59c0,4.85-2.89,7.74-7.74,7.74H20A1.34,1.34,0,0,1,18.67,28V20.31a.67.67,0,0,1,.65-.67l2.35,0a.42.42,0,0,0,.38-.33l.47-2.55a.41.41,0,0,0-.4-.47l-2.84,0a.67.67,0,0,1-.68-.65l-.05-3.27A.4.4,0,0,1,19,12l3.2-.05a.39.39,0,0,0,.4-.4l-.06-3.2a.39.39,0,0,0-.4-.4l-3.6,0A4,4,0,0,0,14.56,12l.07,3.67a.67.67,0,0,1-.66.68l-1.6,0a.4.4,0,0,0-.4.4l0,2.54a.4.4,0,0,0,.4.4l1.6,0a.67.67,0,0,1,.68.65l.12,7.6a1.32,1.32,0,0,1-1.33,1.36H10.41c-4.85,0-7.74-2.89-7.74-7.76V10.41c0-4.85,2.89-7.74,7.74-7.74H21.59c4.85,0,7.74,2.89,7.74,7.74Z" transform="translate(-2.67 -2.67)"/></svg>