<svg xmlns="http://www.w3.org/2000/svg" width="64.01" height="49.9" viewBox="0 0 64.01 49.9"><path d="M53.43,38.74a.87.87,0,0,0-1.15.48A22,22,0,0,1,31.82,52.93a22.38,22.38,0,0,1-3.65-.3,1,1,0,0,0-.35,0,.81.81,0,0,0-.33.14.82.82,0,0,0-.24.25.79.79,0,0,0-.13.33,1,1,0,0,0,0,.35.86.86,0,0,0,.15.32.78.78,0,0,0,.27.24.76.76,0,0,0,.33.11,23.83,23.83,0,0,0,26-14.48,1,1,0,0,0,.07-.34,1.37,1.37,0,0,0-.07-.34,1.1,1.1,0,0,0-.2-.28A.7.7,0,0,0,53.43,38.74Z" transform="translate(0 -6.96)" fill="#0b1c31"/><path d="M22.46,10.8a22.14,22.14,0,0,1,20.2.76.88.88,0,0,0,.44.12.91.91,0,0,0,.54-.19A.89.89,0,0,0,44,11a.86.86,0,0,0,0-.57.88.88,0,0,0-.38-.43A24,24,0,0,0,21.71,9.2a.9.9,0,0,0-.46.5.89.89,0,0,0,0,.68.9.9,0,0,0,.5.46.89.89,0,0,0,.68,0Z" transform="translate(0 -6.96)" fill="#0b1c31"/><path d="M9.21,29.43h.08a.89.89,0,0,0,.89-.81,21.84,21.84,0,0,1,3-9.12A22.5,22.5,0,0,1,15,16.81a1.08,1.08,0,0,0,.16-.3,1,1,0,0,0,0-.35.91.91,0,0,0-.1-.33,1.18,1.18,0,0,0-.23-.27,1.08,1.08,0,0,0-.3-.16,1,1,0,0,0-.35,0,1,1,0,0,0-.33.11.92.92,0,0,0-.26.22A24,24,0,0,0,8.41,28.47a.8.8,0,0,0,0,.34.87.87,0,0,0,.16.3.93.93,0,0,0,.27.22A1,1,0,0,0,9.21,29.43Z" transform="translate(0 -6.96)" fill="#0b1c31"/><path d="M63.46,24.62a34.06,34.06,0,0,0-7.81-2.05s0,0,0-.06a6.81,6.81,0,0,0,3-7.65,6.81,6.81,0,1,0-12.89,4.32,6.87,6.87,0,0,0,2.78,3.33v0a28.58,28.58,0,0,0-7.85,2.08.84.84,0,0,0-.37.33.86.86,0,0,0-.14.47v7.7a.88.88,0,0,0,.26.63A.92.92,0,0,0,41,34H63.12a.89.89,0,0,0,.89-.89v-7.7a1,1,0,0,0-.15-.49A.89.89,0,0,0,63.46,24.62Zm-11.39-.53c.49,0,1,0,1.44.05l-1.44,5.17-1.45-5.18c.48,0,1,0,1.45,0Zm-5-7.38a5,5,0,0,1,3.11-4.65,5,5,0,0,1,5.48,1.09A5,5,0,0,1,57,15.73a4.92,4.92,0,0,1-.29,2.91A5,5,0,0,1,47,16.71ZM41.9,26a29.12,29.12,0,0,1,6.92-1.73l2.23,8H41.91Zm20.34,6.23H53.09l2.21-7.94A33.9,33.9,0,0,1,62.24,26Z" transform="translate(0 -6.96)" fill="#0b1c31"/><path d="M17.76,13.65a1,1,0,0,0,.49-.15.92.92,0,0,0,.33-.4,1,1,0,0,0,.05-.51.94.94,0,0,0-.7-.7,1,1,0,0,0-.51,0,.92.92,0,0,0-.4.33,1,1,0,0,0-.15.49.89.89,0,0,0,.89.89Z" transform="translate(0 -6.96)" fill="#0b1c31"/><path d="M23.32,47.46A33.35,33.35,0,0,0,15.4,45.4a6.83,6.83,0,0,0,2.84-3.3,6.76,6.76,0,0,0,.25-4.35A6.8,6.8,0,1,0,8.42,45.38,28.81,28.81,0,0,0,.51,47.47a.84.84,0,0,0-.37.33.89.89,0,0,0-.14.47V56a.88.88,0,0,0,.26.63.91.91,0,0,0,.62.26H23a.92.92,0,0,0,.63-.26.88.88,0,0,0,.26-.63v-7.7a.88.88,0,0,0-.54-.81Zm-11.39-.53c.51,0,1,0,1.51,0l-1.59,5.7L10.26,47C10.8,47,11.36,46.93,11.93,46.93Zm-5-7.38a5,5,0,0,1,6-4.93A5.17,5.17,0,0,1,15.5,36a5,5,0,0,1,1.37,2.58,4.92,4.92,0,0,1-.29,2.91,5,5,0,0,1-1.85,2.26,5,5,0,0,1-7.84-4.2ZM1.76,48.86a29.29,29.29,0,0,1,6.7-1.7l2.22,7.93H1.77Zm20.32,6.23H13l2.22-7.93a33.79,33.79,0,0,1,6.86,1.72Z" transform="translate(0 -6.96)" fill="#0b1c31"/></svg>
