<?xml version="1.0" standalone="no"?>
<!DOCTYPE svg PUBLIC "-//W3C//DTD SVG 20010904//EN"
 "http://www.w3.org/TR/2001/REC-SVG-20010904/DTD/svg10.dtd">
<svg version="1.0" xmlns="http://www.w3.org/2000/svg"
 width="250.000000pt" height="250.000000pt" viewBox="0 0 250.000000 250.000000"
 preserveAspectRatio="xMidYMid meet">
<metadata>
Created by potrace 1.14, written by Peter Selinger 2001-2017
</metadata>
<g transform="translate(0.000000,250.000000) scale(0.100000,-0.100000)"
fill="#000000" stroke="none">
<path d="M1065 2489 c-163 -28 -271 -62 -400 -126 -347 -174 -583 -490 -649
-868 -18 -102 -18 -299 0 -410 75 -471 414 -875 860 -1024 87 -29 108 -34 208
-51 80 -13 284 -9 376 7 104 17 272 72 354 115 292 153 509 400 613 698 54
152 67 230 67 400 1 184 -5 236 -39 355 -99 342 -333 628 -643 784 -91 46
-253 98 -357 115 -98 16 -310 18 -390 5z m-77 -251 c22 -12 38 -49 34 -78 -14
-85 -117 -101 -157 -26 -16 29 -17 38 -5 65 22 54 72 69 128 39z m207 -2 c47
-31 40 -113 -12 -139 -37 -19 -73 -12 -100 19 -69 78 24 177 112 120z m230
-19 c22 -31 18 -72 -9 -103 -64 -75 -182 10 -135 97 26 50 111 53 144 6z m163
34 c27 -2 62 -49 62 -83 -1 -40 -17 -64 -54 -78 -56 -21 -116 22 -116 82 0 36
48 88 76 83 10 -2 25 -4 32 -4z m-1013 -258 c22 -29 27 -62 13 -91 -39 -81
-158 -56 -158 33 0 53 41 89 93 82 21 -3 45 -14 52 -24z m198 15 c70 -37 58
-135 -18 -154 -31 -8 -82 12 -95 37 -41 76 38 157 113 117z m222 -13 c43 -44
31 -112 -24 -135 -60 -24 -121 14 -121 75 0 77 90 114 145 60z m209 3 c14 -13
28 -38 31 -56 5 -27 0 -38 -24 -63 -56 -56 -142 -23 -144 55 -2 73 82 112 137
64z m189 10 c33 -17 46 -39 47 -75 0 -69 -88 -109 -138 -63 -73 69 3 185 91
138z m212 2 c35 -13 56 -64 43 -102 -30 -85 -150 -73 -165 16 -5 30 -1 40 25
66 32 32 54 36 97 20z m228 -4 c44 -34 35 -125 -15 -142 -54 -18 -91 -6 -112
35 -20 40 -1 105 33 114 33 9 77 6 94 -7z m200 -6 c71 -56 21 -162 -68 -146
-69 13 -92 97 -39 144 31 27 73 28 107 2z m-1470 -233 c69 -45 19 -163 -63
-151 -50 8 -90 90 -62 130 28 41 81 50 125 21z m222 -3 c50 -53 30 -124 -39
-143 -53 -14 -106 25 -106 78 0 80 93 121 145 65z m194 11 c22 -13 43 -67 36
-94 -24 -95 -165 -79 -165 20 0 65 75 108 129 74z m199 1 c50 -17 64 -103 23
-140 -50 -46 -141 -8 -141 58 0 37 23 74 54 85 23 9 29 9 64 -3z m455 -27 c44
-54 -1 -139 -74 -139 -31 0 -79 53 -79 87 0 34 24 71 53 82 29 11 78 -4 100
-30z m194 9 c29 -27 36 -63 19 -97 -37 -71 -144 -59 -161 19 -9 42 18 88 58
98 37 10 54 6 84 -20z m225 -11 c27 -34 22 -74 -12 -109 -26 -25 -36 -29 -63
-24 -64 12 -97 84 -61 134 32 46 101 45 136 -1z m-637 8 c66 -65 -8 -171 -94
-135 -54 22 -68 96 -25 135 36 33 87 33 119 0z m-1050 -230 c52 -51 16 -145
-54 -145 -77 0 -115 97 -57 146 36 31 80 31 111 -1z m201 1 c58 -49 20 -146
-57 -146 -43 0 -79 39 -79 85 0 74 80 110 136 61z m218 -1 c36 -33 36 -83 0
-119 -31 -30 -64 -33 -104 -9 -47 28 -54 87 -14 127 35 34 82 35 118 1z m212
2 c56 -49 18 -147 -57 -147 -21 0 -40 10 -61 30 -25 26 -29 36 -24 63 13 69
90 98 142 54z m205 -6 c33 -33 37 -65 12 -101 -23 -33 -33 -40 -66 -40 -61 0
-101 50 -85 107 17 63 92 81 139 34z m215 -5 c31 -35 31 -76 -1 -110 -48 -52
-130 -26 -142 46 -5 32 -1 41 24 67 38 38 85 37 119 -3z m205 5 c48 -49 34
-117 -30 -139 -70 -25 -138 61 -97 123 33 51 85 57 127 16z m195 10 c59 -36
52 -116 -13 -146 -43 -21 -87 -6 -108 36 -22 41 -19 61 14 97 34 37 62 40 107
13z m232 -17 c26 -29 28 -54 7 -93 -38 -74 -155 -43 -155 41 1 81 93 114 148
52z m203 7 c37 -37 38 -78 4 -115 -50 -54 -145 -19 -145 54 0 40 47 90 85 90
16 0 38 -12 56 -29z m-1901 -216 c55 -28 66 -85 26 -131 -70 -82 -192 24 -126
109 11 14 30 28 43 30 12 2 23 5 25 6 2 0 16 -6 32 -14z m211 -8 c26 -20 41
-56 34 -87 -14 -63 -85 -86 -135 -43 -82 68 16 194 101 130z m204 8 c56 -23
71 -85 32 -130 -33 -39 -91 -39 -123 -1 -46 53 -18 129 54 145 1 1 18 -6 37
-14z m233 -17 c53 -50 11 -143 -64 -141 -62 2 -97 57 -73 115 23 56 91 69 137
26z m201 13 c10 -6 25 -26 31 -45 29 -90 -89 -153 -146 -78 -22 28 -17 86 9
109 36 33 63 37 106 14z m223 -25 c25 -30 22 -70 -8 -105 -34 -41 -75 -42
-115 -2 -50 50 -30 121 38 140 32 9 60 -2 85 -33z m423 1 c55 -78 -43 -176
-118 -117 -31 25 -42 65 -26 103 24 58 108 66 144 14z m-221 8 c43 -40 33
-105 -21 -133 -80 -43 -167 65 -100 125 43 40 84 43 121 8z m417 -4 c31 -31
36 -59 17 -94 -42 -79 -158 -52 -158 37 0 78 85 113 141 57z m217 6 c27 -29
33 -65 16 -99 -19 -37 -49 -51 -91 -43 -41 7 -74 53 -67 94 11 64 99 94 142
48z m-1680 -233 c54 -62 0 -145 -88 -135 -26 3 -60 50 -60 82 0 21 10 40 30
61 26 25 36 29 63 24 18 -3 42 -17 55 -32z m188 23 c21 -8 39 -35 47 -75 6
-28 -32 -77 -68 -86 -49 -13 -105 34 -105 87 0 60 61 96 126 74z m428 -19 c15
-13 29 -37 32 -55 5 -27 1 -37 -24 -63 -32 -32 -60 -37 -95 -18 -33 17 -46 39
-47 76 0 70 81 106 134 60z m207 5 c33 -19 48 -71 32 -106 -26 -57 -120 -61
-148 -7 -26 51 -16 91 30 118 28 16 52 15 86 -5z m429 -8 c30 -31 31 -89 3
-117 -31 -30 -83 -33 -115 -6 -40 35 -45 78 -13 117 35 41 90 44 125 6z m209
-1 c60 -50 25 -144 -54 -144 -88 0 -117 114 -40 158 32 18 61 14 94 -14z
m-871 -215 c40 -14 62 -48 57 -88 -5 -42 -12 -51 -51 -67 -22 -9 -41 -11 -56
-5 -78 30 -79 130 -3 162 11 4 20 8 21 8 1 1 15 -4 32 -10z m255 -30 c37 -45
7 -121 -53 -134 -74 -16 -129 70 -84 133 32 45 100 46 137 1z m-216 -221 c32
-36 38 -79 13 -110 -51 -65 -149 -33 -150 50 0 71 91 110 137 60z m207 -4 c36
-36 36 -86 0 -119 -56 -52 -144 -16 -144 58 0 77 89 115 144 61z m-414 -213
c23 -23 28 -34 24 -62 -6 -44 -45 -79 -87 -79 -55 1 -93 48 -82 101 16 71 93
92 145 40z m625 -6 c55 -54 12 -144 -68 -145 -30 0 -77 54 -77 89 0 71 94 108
145 56z m-424 -14 c38 -38 38 -74 0 -112 -31 -31 -59 -36 -94 -17 -32 16 -46
39 -47 71 -1 81 83 115 141 58z m210 0 c31 -31 36 -59 17 -94 -17 -33 -39 -46
-76 -47 -80 0 -112 110 -44 153 40 24 70 21 103 -12z"/>
</g>
</svg>
