<svg xmlns="http://www.w3.org/2000/svg" width="64" height="62.29" viewBox="0 0 64 62.29"><path d="M62.1,51.92l-15-15,0,0,0,0a1.09,1.09,0,0,0-1.56,0l-1.19,1.18-4.84-4.84,3-3A15,15,0,0,0,60.71,9.35a1.19,1.19,0,0,0-.38-.45,1.22,1.22,0,0,0-.55-.23,1.31,1.31,0,0,0-.59,0,1.24,1.24,0,0,0-.5.31L50,17.74a3.13,3.13,0,0,1-4.34-4.5l8.65-8.65a1.22,1.22,0,0,0,.3-.5,1.18,1.18,0,0,0,.05-.59A1.22,1.22,0,0,0,54.4,3,1.27,1.27,0,0,0,54,2.57,15,15,0,0,0,33,20.81l-3,3L18.25,12l-.59-2.34a1.07,1.07,0,0,0-.5-.66l-5-3.07A3.91,3.91,0,0,0,9.43,4.86a3.89,3.89,0,0,0-2.77,6.56l3.1,5a1.16,1.16,0,0,0,.37.36,1.23,1.23,0,0,0,.49.16l1.76.13L24.56,29.3l-5.88,5.88a1.12,1.12,0,0,0-.32.57,1.17,1.17,0,0,0,.06.64,1.08,1.08,0,0,0,1,.69,1.1,1.1,0,0,0,.79-.32l5.87-5.89,6.31,6.31L9.82,59.77a4.46,4.46,0,0,1-6.3-6.3l7.31-7.29a1.19,1.19,0,0,0,.24-.36,1.07,1.07,0,0,0,.09-.43.89.89,0,0,0-.08-.43,1.12,1.12,0,0,0-.24-.37,1.26,1.26,0,0,0-.36-.24,1.31,1.31,0,0,0-.43-.08,1,1,0,0,0-.43.09,1,1,0,0,0-.36.25L2,51.9A6.7,6.7,0,0,0,.51,54.06,6.61,6.61,0,0,0,0,56.62a6.68,6.68,0,0,0,11.39,4.72L34,38.74l4.84,4.85-1.19,1.18a1.12,1.12,0,0,0,0,1.57l15,15a6.67,6.67,0,0,0,9.44-9.43Zm-27-30.06a1.11,1.11,0,0,0,.32-.71,1.1,1.1,0,0,0-.22-.74A12.79,12.79,0,0,1,38.23,7,12.8,12.8,0,0,1,51.71,4l-7.66,7.65a5.35,5.35,0,0,0,7.49,7.63l7.72-7.73A12.82,12.82,0,0,1,42.57,28l0,0-.15,0h-.43a.32.32,0,0,0-.09,0l-.12,0-.08,0-.1.06a.39.39,0,0,0-.1.08l-.07.05-3.46,3.46-6.3-6.3ZM13.65,15.27A1.11,1.11,0,0,0,13,15l-1.58-.13L8.49,10.15a1.56,1.56,0,0,0-.16-.2A1.65,1.65,0,0,1,8,9.41,1.64,1.64,0,0,1,8,8.13a1.65,1.65,0,0,1,.36-.54,1.72,1.72,0,0,1,1.18-.47,1.71,1.71,0,0,1,1.18.47l.21.16,4.71,2.88.55,2.19a1.17,1.17,0,0,0,.29.52L42.76,39.65,40.39,42ZM60.53,59.79a4.47,4.47,0,0,1-6.3,0L40,45.55l6.31-6.3L60.53,53.49a4.47,4.47,0,0,1,0,6.3Z" transform="translate(0 -1)" fill="#0b1c31"/><path d="M48.1,43.2a1.1,1.1,0,0,0-.78-.32,1.11,1.11,0,0,0-.77.33,1.07,1.07,0,0,0-.33.77,1.13,1.13,0,0,0,.31.78l11,11a1.29,1.29,0,0,0,.36.25,1.27,1.27,0,0,0,.43.09,1.07,1.07,0,0,0,.43-.09,1.1,1.1,0,0,0,.6-.6,1.07,1.07,0,0,0,0-.86,1.29,1.29,0,0,0-.25-.36Z" transform="translate(0 -1)" fill="#0b1c31"/><path d="M45.44,45.86a1.11,1.11,0,0,0-1.57,1.57l11,11a1.06,1.06,0,0,0,.78.32,1.13,1.13,0,0,0,.77-.33,1.11,1.11,0,0,0,0-1.55Z" transform="translate(0 -1)" fill="#0b1c31"/><path d="M14.83,41.86a1.11,1.11,0,1,0-1.11-1.11A1.11,1.11,0,0,0,14.83,41.86Z" transform="translate(0 -1)" fill="#0b1c31"/></svg>
