<svg xmlns="http://www.w3.org/2000/svg" xmlns:xlink="http://www.w3.org/1999/xlink" style="display:none"><symbol id="area-icon"><path d="M22 1v5a1 1 0 0 1-.17.56 1.06 1.06 0 0 1-.44.37A1.34 1.34 0 0 1 21 7a1 1 0 0 1-.71-.29l-1.79-1.8-3.79 3.8a1.004 1.004 0 1 1-1.42-1.42l3.8-3.79-1.8-1.79a1 1 0 0 1-.29-.52 1 1 0 0 1 .42-1A1 1 0 0 1 16 0h5a1 1 0 0 1 1 1ZM7.29 13.29l-3.79 3.8-1.79-1.8a1 1 0 0 0-.52-.29 1 1 0 0 0-1 .42A1 1 0 0 0 0 16v5a1 1 0 0 0 1 1h5a1 1 0 0 0 .56-.17 1 1 0 0 0 .42-1 1 1 0 0 0-.27-.52l-1.8-1.81 3.8-3.79a1 1 0 0 0 .23-.69 1 1 0 0 0-1-1 1 1 0 0 0-.65.27Zm14.1 1.79a1 1 0 0 0-.58-.06 1 1 0 0 0-.52.27l-1.79 1.8-3.79-3.8a1 1 0 0 0-.69-.23 1 1 0 0 0-1 1 1 1 0 0 0 .23.69l3.8 3.79-1.8 1.79a1 1 0 0 0-.27.52 1 1 0 0 0 .42 1 1 1 0 0 0 .6.15h5a1 1 0 0 0 1-1v-5a1 1 0 0 0-.17-.56 1 1 0 0 0-.44-.36ZM4.91 3.5l1.8-1.79A1 1 0 0 0 7 1.19a1 1 0 0 0-.42-1A1 1 0 0 0 6 0H1a1 1 0 0 0-1 1v5a1 1 0 0 0 .17.56 1.06 1.06 0 0 0 .44.37A1.34 1.34 0 0 0 1 7a1 1 0 0 0 .71-.29l1.79-1.8 3.79 3.8a1.004 1.004 0 1 0 1.42-1.42Z"/></symbol><symbol id="btn-arrow-icon"><path d="M.97 14a1 1 0 0 1-.69-.28 1 1 0 0 1 0-1.37L5.66 7 .28 1.65a1 1 0 0 1 0-1.4 1 1 0 0 1 1.38 0l6.06 6a1 1 0 0 1 0 1.36l-6.06 6a1 1 0 0 1-.69.39Z"/></symbol><symbol id="btn-arrow-left-icon"><path d="m6.33 13.64-6.06-6a1 1 0 0 1 0-1.36l6.06-6a1 1 0 0 1 1.38 0 1 1 0 0 1 0 1.4L2.33 7.03l5.38 5.35a1 1 0 0 1 0 1.37 1 1 0 0 1-.7.28 1 1 0 0 1-.68-.39Z"/></symbol><symbol id="calendar-icon"><path d="M8.67 5h7.66V3H8.67V0h-2v8h2V5z"/><path d="M25 3h-4.33V0h-2v8h2V5H25a.34.34 0 0 1 .34.33V24a.34.34 0 0 1-.34.33H2.34A.34.34 0 0 1 2 24V5.33A.34.34 0 0 1 2.34 5h2V3h-2A2.33 2.33 0 0 0 0 5.33V24a2.33 2.33 0 0 0 2.34 2.33H25A2.33 2.33 0 0 0 27.34 24V5.33A2.33 2.33 0 0 0 25 3Z"/><rect x="5" y="10.67" width="4" height="4" rx=".5"/><rect x="5" y="17.33" width="4" height="4" rx=".5"/><rect x="11.67" y="10.67" width="4" height="4" rx=".5"/><rect x="11.67" y="17.33" width="4" height="4" rx=".5"/><rect x="18.33" y="10.67" width="4" height="4" rx=".5"/></symbol><symbol id="call-icon"><path d="M12.05 15.33c-.13-.14-.28-.27-.41-.4-.7-.71-1.34-1.42-1.94-2.11a11.36 11.36 0 0 1-1.24-1.71 2.24 2.24 0 0 0-.1-.26 1.1 1.1 0 0 1 0-.31.69.69 0 0 1 .21-.53l1-1.06a4.6 4.6 0 0 0 .75-.94 1.8 1.8 0 0 0 .28-1 2.11 2.11 0 0 0-.22-.68 4.57 4.57 0 0 0-.53-1L6.76.98a2.2 2.2 0 0 0-.9-.74A2.47 2.47 0 0 0 4.78 0a3.9 3.9 0 0 0-2.77 1.25A6.07 6.07 0 0 0 .48 3.48 6.87 6.87 0 0 0 0 6.05a11.55 11.55 0 0 0 .94 4.36 23.39 23.39 0 0 0 2.62 4.55 36.87 36.87 0 0 0 3.77 4.37l.44.42a1.34 1.34 0 0 0 1.88 0l2.46-2.47a1.33 1.33 0 0 0-.06-1.95ZM26.41 20.73a2.1 2.1 0 0 0-.73-.85l-4.42-3.14a5.58 5.58 0 0 0-.93-.52 2.1 2.1 0 0 0-.81-.17 1.75 1.75 0 0 0-1 .28 3.82 3.82 0 0 0-1 .75l-1 1a.76.76 0 0 1-.55.22.88.88 0 0 1-.33 0l-.24-.11a6.69 6.69 0 0 1-1-.64l-4.27 4.31c.49.42 1 .8 1.53 1.19a23.2 23.2 0 0 0 4.59 2.64 11.17 11.17 0 0 0 4.35 1 6.75 6.75 0 0 0 2.56-.49 6.09 6.09 0 0 0 2.18-1.58 5.4 5.4 0 0 0 .99-1.4 3.05 3.05 0 0 0 .13-.32 3.21 3.21 0 0 0 .2-1.13 2.8 2.8 0 0 0-.25-1.04Z"/></symbol><symbol id="caret-down-icon"><path d="M4.95 6a1 1 0 0 1-.73-.31L.3 1.78A1.043 1.043 0 0 1 1.78.31L4.95 3.5 8.16.31a1.04 1.04 0 1 1 1.47 1.47L5.69 5.69a1 1 0 0 1-.74.31Z"/></symbol><symbol id="caret-left-icon"><path d="M11 22a1 1 0 0 1-.71-.29l-10-10a1 1 0 0 1 0-1.42l10-10a1.004 1.004 0 1 1 1.42 1.42L2.41 11l9.3 9.29a1 1 0 0 1 0 1.42A1 1 0 0 1 11 22Z"/></symbol><symbol id="caret-right-icon"><path d="M1 22a1 1 0 0 1-.71-.29 1 1 0 0 1 0-1.42L9.59 11 .29 1.71A1.004 1.004 0 0 1 1.71.29l10 10a1 1 0 0 1 0 1.42l-10 10A1 1 0 0 1 1 22Z"/></symbol><symbol id="case-icon"><path d="M24 4h-5V3a3 3 0 0 0-3-3h-6a3 3 0 0 0-3 3v1H2a2 2 0 0 0-1.41.59A2 2 0 0 0 0 6v16a2 2 0 0 0 .59 1.41A2 2 0 0 0 2 24h22a2 2 0 0 0 2-2V6a2 2 0 0 0-2-2ZM9 3a1 1 0 0 1 1-1h6a1 1 0 0 1 1 1v1H9Zm15 3v5.2A23 23 0 0 1 13 14a23 23 0 0 1-11-2.8V6Zm-13.5 5a1 1 0 0 1 1-1h3a1 1 0 1 1 0 2h-3a1 1 0 0 1-1-1Z"/></symbol><symbol id="check-circle-icon"><path d="m17.81 9.28-6.65 6.34-3-2.84a1 1 0 0 0-1.38 1.44l3.66 3.5a1 1 0 0 0 .69.28 1 1 0 0 0 .69-.28l7.34-7a1 1 0 1 0-1.38-1.44Z"/><path d="M13 0a13 13 0 1 0 13 13A13 13 0 0 0 13 0Zm0 24a11 11 0 1 1 11-11 11 11 0 0 1-11 11Z"/></symbol><symbol id="close-icon"><path d="m11.41 10 8.3-8.29A1.004 1.004 0 1 0 18.29.29L10 8.59 1.71.29A1.004 1.004 0 0 0 .29 1.71L8.59 10l-8.3 8.29a1 1 0 0 0 0 1.42 1 1 0 0 0 1.42 0l8.29-8.3 8.29 8.3a1 1 0 0 0 1.42 0 1 1 0 0 0 0-1.42Z"/></symbol><symbol id="envelope-icon"><path d="M18.75 0h-18A.75.75 0 0 0 0 .75V13.5A1.5 1.5 0 0 0 1.5 15H18a1.5 1.5 0 0 0 1.5-1.5V.75a.75.75 0 0 0-.75-.75ZM7 7.5l-5.5 5v-10Zm1.11 1 1.13 1a.75.75 0 0 0 1 0l1.13-1 5.43 5H2.68Zm4.39-1 5.5-5v10Z"/></symbol><symbol id="eye-icon"><path d="M29.44 9.45C29.39 9.35 25.12 0 14.75 0S.11 9.35.06 9.45a.78.78 0 0 0 0 .6c.05.1 4.32 9.45 14.69 9.45s14.64-9.35 14.69-9.45a.78.78 0 0 0 0-.6ZM14.75 18C6.28 18 2.37 11.3 1.58 9.75 2.37 8.2 6.28 1.5 14.75 1.5s12.38 6.7 13.17 8.25C27.13 11.3 23.22 18 14.75 18Z"/><path d="M14.75 4a5.75 5.75 0 1 0 5.75 5.75A5.76 5.76 0 0 0 14.75 4Zm0 10A4.25 4.25 0 1 1 19 9.75 4.26 4.26 0 0 1 14.75 14Z"/></symbol><symbol id="eye-slash-icon"><path d="M11.95 7.55 5.31.25a.75.75 0 0 0-1.12 1l2.62 2.88a17.62 17.62 0 0 0-6.75 7.32.78.78 0 0 0 0 .6c.05.1 4.32 9.45 14.68 9.45h.13a15.49 15.49 0 0 0 6.43-1.42l2.9 3.17a.71.71 0 0 0 .55.25.69.69 0 0 0 .5-.2.73.73 0 0 0 .05-1.05Zm-1.34 3.2a4.23 4.23 0 0 1 .78-1.61l5.62 6.19a4.21 4.21 0 0 1-2.24.65 4.21 4.21 0 0 1-2.4-.75 4.16 4.16 0 0 1-1.56-2 4.3 4.3 0 0 1-.2-2.48Zm4.26 9.23c-8.54.04-12.49-6.67-13.29-8.23a16.39 16.39 0 0 1 6.26-6.48l2.53 2.77a5.67 5.67 0 0 0-1.22 2.39 5.77 5.77 0 0 0 2.35 6.06 5.51 5.51 0 0 0 3.27 1 5.71 5.71 0 0 0 3.25-1l2.22 2.44A14 14 0 0 1 14.87 20ZM29.44 11.45C29.39 11.35 25.12 2 14.75 2a15.17 15.17 0 0 0-2.71.22.775.775 0 1 0 .25 1.53 15.6 15.6 0 0 1 2.46-.25c8.47 0 12.37 6.69 13.17 8.25a17 17 0 0 1-3.59 4.58.75.75 0 0 0 .5 1.31.82.82 0 0 0 .5-.19 17.82 17.82 0 0 0 4.11-5.4.78.78 0 0 0 0-.6Z"/><path d="M17.89 8.89a4.23 4.23 0 0 1 1.09 2.45.75.75 0 0 0 .74.69h.03a.74.74 0 0 0 .68-.81 5.66 5.66 0 0 0-1.47-3.33 5.74 5.74 0 0 0-3.17-1.78.76.76 0 0 0-.88.6.74.74 0 0 0 .6.87 4.21 4.21 0 0 1 2.38 1.31Z"/></symbol><symbol id="facebook-icon"><path d="M26.66 18.92c0 4.85-2.89 7.74-7.74 7.74h-1.59A1.34 1.34 0 0 1 16 25.33v-7.69a.67.67 0 0 1 .65-.67H19a.42.42 0 0 0 .38-.33l.47-2.55a.41.41 0 0 0-.4-.47h-2.84a.67.67 0 0 1-.68-.65l-.05-3.27a.4.4 0 0 1 .45-.37l3.2-.05a.39.39 0 0 0 .4-.4l-.06-3.2a.39.39 0 0 0-.4-.4h-3.6a4 4 0 0 0-3.98 4.05l.07 3.67a.67.67 0 0 1-.66.68H9.7a.4.4 0 0 0-.4.4v2.54a.4.4 0 0 0 .4.4h1.6a.67.67 0 0 1 .68.65l.12 7.6a1.32 1.32 0 0 1-1.33 1.36H7.74C2.89 26.63 0 23.74 0 18.87V7.74C0 2.89 2.89 0 7.74 0h11.18c4.85 0 7.74 2.89 7.74 7.74Z"/></symbol><symbol id="globe-icon"><path d="M18.94 12.98a9.6 9.6 0 0 0 0-6.46.36.36 0 0 0 0-.09 9.73 9.73 0 0 0-18.3 0 .36.36 0 0 0 0 .09 9.6 9.6 0 0 0 0 6.46.36.36 0 0 0 0 .09 9.73 9.73 0 0 0 18.3 0 .36.36 0 0 0 0-.09Zm-9.19 4.77c-1 0-2.06-1.68-2.62-4.26h5.24c-.56 2.59-1.62 4.26-2.62 4.26ZM6.88 12a19.54 19.54 0 0 1 0-4.5h5.74a20 20 0 0 1 .13 2.25 20 20 0 0 1-.13 2.25ZM1.5 9.75a8.38 8.38 0 0 1 .32-2.25h3.55a21.15 21.15 0 0 0 0 4.5H1.82a8.38 8.38 0 0 1-.32-2.25Zm8.25-8c1 0 2.06 1.68 2.62 4.26H7.13c.56-2.59 1.62-4.26 2.62-4.26Zm4.38 5.76h3.55a8.07 8.07 0 0 1 0 4.5h-3.55a20.38 20.38 0 0 0 .12-2.26 20.38 20.38 0 0 0-.12-2.25Zm3-1.5h-3.22a10.92 10.92 0 0 0-1.54-4.07A8.36 8.36 0 0 1 17.09 6Zm-10-4.07A10.92 10.92 0 0 0 5.59 6H2.41a8.36 8.36 0 0 1 4.72-4.07ZM2.41 13.5h3.18a10.92 10.92 0 0 0 1.54 4.07 8.36 8.36 0 0 1-4.72-4.07Zm10 4.07a10.92 10.92 0 0 0 1.54-4.07h3.18a8.36 8.36 0 0 1-4.76 4.07Z"/></symbol><symbol id="instagram-icon"><path d="M18 0H7a7 7 0 0 0-7 7v11a7 7 0 0 0 7 7h11a7 7 0 0 0 7-7V7a7 7 0 0 0-7-7Zm-5.5 18.5a6 6 0 0 1-1.17-11.88 5.9 5.9 0 0 1 3.47.34 6 6 0 0 1-2.3 11.54Zm6.5-11a1.5 1.5 0 0 1-.83-.25 1.55 1.55 0 0 1-.56-.68 1.49 1.49 0 0 1-.11-.86 1.49 1.49 0 0 1 1.21-1.21 1.49 1.49 0 0 1 .86.08 1.55 1.55 0 0 1 .68.56A1.5 1.5 0 0 1 19 7.5Z"/></symbol><symbol id="linkedin-icon"><path d="M7.74 26.66C2.89 26.66 0 23.77 0 18.9V7.74C0 2.89 2.89 0 7.74 0h11.18c4.85 0 7.74 2.89 7.74 7.74v11.18c0 4.85-2.89 7.74-7.74 7.74Zm1.3-6.62a1 1 0 0 0 .29-.71v-8a1 1 0 1 0-2 0v8a1 1 0 0 0 1.71.71ZM8.33 8.83a1.5 1.5 0 0 1-.83-.25 1.55 1.55 0 0 1-.56-.68 1.49 1.49 0 0 1-.08-.86 1.49 1.49 0 0 1 1.18-1.18 1.49 1.49 0 0 1 .86.08 1.55 1.55 0 0 1 .68.56 1.5 1.5 0 0 1-1.25 2.33Zm11.71 11.21a1 1 0 0 0 .29-.71v-4.5a4.5 4.5 0 0 0-.64-2.32 4.65 4.65 0 0 0-1.75-1.66 4.47 4.47 0 0 0-2.35-.52 4.41 4.41 0 0 0-2.28.77 1 1 0 0 0-.4-.6 1 1 0 0 0-1.33.15 1 1 0 0 0-.25.68v8a1 1 0 1 0 2 0v-4.5a2.5 2.5 0 1 1 5 0v4.5a1 1 0 0 0 1.71.71Z" fill-rule="evenodd"/></symbol><symbol id="map-pin"><path d="M16 2A11.013 11.013 0 0 0 5 13c0 9.413 10 16.525 10.425 16.825a1.038 1.038 0 0 0 1.15 0C17 29.525 27 22.413 27 13A11.012 11.012 0 0 0 16 2Zm0 7a4 4 0 1 1 0 8 4 4 0 0 1 0-8Z"/></symbol><symbol id="quotes-icon"><path d="M14.5 9v11a6 6 0 0 1-6 6 1 1 0 0 1 0-2 4.013 4.013 0 0 0 4-4v-1H5a2 2 0 0 1-2-2V9a2 2 0 0 1 2-2h7.5a2 2 0 0 1 2 2ZM27 7h-7.5a2 2 0 0 0-2 2v8a2 2 0 0 0 2 2H27v1a4.013 4.013 0 0 1-4 4 1 1 0 0 0 0 2 6 6 0 0 0 6-6V9a2 2 0 0 0-2-2Z"/></symbol><symbol id="twitter-icon"><path d="m27.03 4.71-3.77 3.77A17 17 0 0 1 6.32 24a10.17 10.17 0 0 1-4.45-.85 3.6 3.6 0 0 1-1.39-1.1 1.06 1.06 0 0 1-.16-.42.93.93 0 0 1 0-.44.89.89 0 0 1 .23-.38.94.94 0 0 1 .37-.25 13.94 13.94 0 0 0 4.89-3.3 13.35 13.35 0 0 1-3.09-3.05C1.06 11.89-.75 7.85.32 1.83a1 1 0 0 1 .69-.78 1 1 0 0 1 .54 0 1 1 0 0 1 .47.26 23.55 23.55 0 0 0 9.3 5.45V6a6.31 6.31 0 0 1 .47-2.31 6 6 0 0 1 1.33-1.95 5.81 5.81 0 0 1 2-1.29A6.14 6.14 0 0 1 17.4 0a6 6 0 0 1 3 .82A6 6 0 0 1 22.52 3h3.8a1 1 0 0 1 .56.17 1 1 0 0 1 .42 1 1 1 0 0 1-.27.54Z"/></symbol><symbol id="youtube-icon"><path d="M20.25 0H6.75A6.38 6.38 0 0 0 0 6.75v8.1a6.38 6.38 0 0 0 6.75 6.75h13.5A6.38 6.38 0 0 0 27 14.85v-8.1A6.38 6.38 0 0 0 20.25 0Zm-4.2 12.19-3.34 2c-1.35.81-2.45.19-2.45-1.39v-4c0-1.58 1.1-2.2 2.45-1.39l3.34 2a1.49 1.49 0 0 1 0 2.78Z"/></symbol></svg>