<svg xmlns="http://www.w3.org/2000/svg" width="27.33" height="26.33" viewBox="0 0 27.33 26.33"><polygon points="8.67 5 16.33 5 16.33 3 8.67 3 8.67 0 6.67 0 6.67 4 6.67 8 8.67 8 8.67 5"/><path d="M27.33,5.67H23v-3H21v8h2v-3h4.33a.34.34,0,0,1,.34.33V26.67a.34.34,0,0,1-.34.33H4.67a.34.34,0,0,1-.34-.33V8a.34.34,0,0,1,.34-.33h2v-2h-2A2.33,2.33,0,0,0,2.33,8V26.67A2.33,2.33,0,0,0,4.67,29H27.33a2.33,2.33,0,0,0,2.34-2.33V8A2.33,2.33,0,0,0,27.33,5.67Z" transform="translate(-2.33 -2.67)"/><rect x="5" y="10.67" width="4" height="4" rx="0.5"/><rect x="5" y="17.33" width="4" height="4" rx="0.5"/><rect x="11.67" y="10.67" width="4" height="4" rx="0.5"/><rect x="11.67" y="17.33" width="4" height="4" rx="0.5"/><rect x="18.33" y="10.67" width="4" height="4" rx="0.5"/></svg>