<svg xmlns="http://www.w3.org/2000/svg" width="26.63" height="26.67" viewBox="0 0 26.63 26.67"><path d="M14.72,18c-.13-.14-.28-.27-.41-.4-.7-.71-1.34-1.42-1.94-2.11a11.36,11.36,0,0,1-1.24-1.71,2.24,2.24,0,0,0-.1-.26,1.1,1.1,0,0,1,0-.31.69.69,0,0,1,.21-.53l1-1.06a4.6,4.6,0,0,0,.75-.94,1.8,1.8,0,0,0,.28-1A2.11,2.11,0,0,0,13.05,9,4.57,4.57,0,0,0,12.52,8L9.43,3.65a2.2,2.2,0,0,0-.9-.74,2.47,2.47,0,0,0-1.08-.24A3.9,3.9,0,0,0,4.68,3.92,6.07,6.07,0,0,0,3.15,6.15a6.87,6.87,0,0,0-.48,2.57,11.55,11.55,0,0,0,.94,4.36,23.39,23.39,0,0,0,2.62,4.55A36.87,36.87,0,0,0,10,22l.44.42a1.34,1.34,0,0,0,1.88,0l2.46-2.47A1.33,1.33,0,0,0,14.72,18Z" transform="translate(-2.67 -2.67)"/><path d="M29.08,23.4a2.1,2.1,0,0,0-.73-.85l-4.42-3.14a5.58,5.58,0,0,0-.93-.52,2.1,2.1,0,0,0-.81-.17,1.75,1.75,0,0,0-1,.28,3.82,3.82,0,0,0-1,.75l-1,1a.76.76,0,0,1-.55.22.88.88,0,0,1-.33,0l-.24-.11a6.69,6.69,0,0,1-1-.64L12.8,24.53c.49.42,1,.8,1.53,1.19a23.2,23.2,0,0,0,4.59,2.64,11.17,11.17,0,0,0,4.35,1,6.75,6.75,0,0,0,2.56-.49h0a6.09,6.09,0,0,0,2.18-1.58A5.4,5.4,0,0,0,29,25.89a3.05,3.05,0,0,0,.13-.32,3.21,3.21,0,0,0,.2-1.13A2.8,2.8,0,0,0,29.08,23.4Z" transform="translate(-2.67 -2.67)"/></svg>