<svg xmlns="http://www.w3.org/2000/svg" width="29.5" height="23.5" viewBox="0 0 29.5 23.5"><path d="M13.2,11.8h0L6.56,4.5a.75.75,0,0,0-1.12,1L8.06,8.38A17.62,17.62,0,0,0,1.31,15.7a.78.78,0,0,0,0,.6c.05.1,4.32,9.45,14.68,9.45h.13a15.49,15.49,0,0,0,6.43-1.42l2.9,3.17a.71.71,0,0,0,.55.25.69.69,0,0,0,.5-.2.73.73,0,0,0,.05-1.05ZM11.86,15a4.23,4.23,0,0,1,.78-1.61l5.62,6.19a4.21,4.21,0,0,1-2.24.65h0a4.21,4.21,0,0,1-2.4-.75,4.16,4.16,0,0,1-1.56-2A4.3,4.3,0,0,1,11.86,15Zm4.26,9.23C7.58,24.27,3.63,17.56,2.83,16A16.39,16.39,0,0,1,9.09,9.52l2.53,2.77a5.67,5.67,0,0,0-1.22,2.39,5.77,5.77,0,0,0,2.35,6.06,5.51,5.51,0,0,0,3.27,1,5.71,5.71,0,0,0,3.25-1l2.22,2.44A14,14,0,0,1,16.12,24.25Z" transform="translate(-1.25 -4.25)"/><path d="M30.69,15.7c-.05-.1-4.32-9.45-14.69-9.45a15.17,15.17,0,0,0-2.71.22A.75.75,0,1,0,13.54,8,15.6,15.6,0,0,1,16,7.75c8.47,0,12.37,6.69,13.17,8.25a17,17,0,0,1-3.59,4.58.75.75,0,0,0,.5,1.31.82.82,0,0,0,.5-.19,17.82,17.82,0,0,0,4.11-5.4A.78.78,0,0,0,30.69,15.7Z" transform="translate(-1.25 -4.25)"/><path d="M19.14,13.14a4.23,4.23,0,0,1,1.09,2.45.75.75,0,0,0,.74.69H21a.74.74,0,0,0,.68-.81,5.66,5.66,0,0,0-1.47-3.33,5.74,5.74,0,0,0-3.17-1.78.76.76,0,0,0-.88.6.74.74,0,0,0,.6.87A4.21,4.21,0,0,1,19.14,13.14Z" transform="translate(-1.25 -4.25)"/></svg>