<svg xmlns="http://www.w3.org/2000/svg" width="29.5" height="19.5" viewBox="0 0 29.5 19.5"><path d="M30.69,15.7c-.05-.1-4.32-9.45-14.69-9.45S1.36,15.6,1.31,15.7a.78.78,0,0,0,0,.6c.05.1,4.32,9.45,14.69,9.45S30.64,16.4,30.69,16.3A.78.78,0,0,0,30.69,15.7ZM16,24.25c-8.47,0-12.38-6.7-13.17-8.25C3.62,14.45,7.53,7.75,16,7.75S28.38,14.45,29.17,16C28.38,17.55,24.47,24.25,16,24.25Z" transform="translate(-1.25 -6.25)"/><path d="M16,10.25A5.75,5.75,0,1,0,21.75,16,5.76,5.76,0,0,0,16,10.25Zm0,10A4.25,4.25,0,1,1,20.25,16,4.26,4.26,0,0,1,16,20.25Z" transform="translate(-1.25 -6.25)"/></svg>