<svg xmlns="http://www.w3.org/2000/svg" width="26.67" height="26.67" viewBox="0 0 26.67 26.67"><path d="M10.41,29.33c-4.85,0-7.74-2.89-7.74-7.76V10.41c0-4.85,2.89-7.74,7.74-7.74H21.59c4.85,0,7.74,2.89,7.74,7.74V21.59c0,4.85-2.89,7.74-7.74,7.74Zm1.3-6.62A1,1,0,0,0,12,22V14a1,1,0,1,0-2,0v8a1,1,0,0,0,1.71.71ZM11,11.5a1.5,1.5,0,0,1-.83-.25,1.55,1.55,0,0,1-.56-.68,1.49,1.49,0,0,1-.08-.86,1.49,1.49,0,0,1,1.18-1.18,1.49,1.49,0,0,1,.86.08,1.55,1.55,0,0,1,.68.56A1.5,1.5,0,0,1,11,11.5ZM22.71,22.71A1,1,0,0,0,23,22V17.5a4.5,4.5,0,0,0-.64-2.32,4.65,4.65,0,0,0-1.75-1.66A4.47,4.47,0,0,0,18.26,13a4.41,4.41,0,0,0-2.28.77,1,1,0,0,0-.4-.6,1,1,0,0,0-1.33.15A1,1,0,0,0,14,14v8a1,1,0,1,0,2,0V17.5a2.5,2.5,0,1,1,5,0V22a1,1,0,0,0,1.71.71Z" transform="translate(-2.67 -2.67)" fill-rule="evenodd"/></svg>